
        <svg xmlns="http://www.w3.org/2000/svg" xmlns:xlink="http://www.w3.org/1999/xlink" version="1.1" width="3187.5" 
        height="901.9774813647847" viewBox="0 0 3187.5 901.9774813647847">
			
			<g transform="scale(9.375) translate(10, 10)">
				<defs id="SvgjsDefs1425"></defs><g id="SvgjsG1426" featureKey="symbolFeature-0" transform="matrix(0.2083415723456064,0,0,0.2083415723456064,-3.3353399964318453,-15.229560393432916)" fill="#3fc1c9"><g xmlns="http://www.w3.org/2000/svg"><g><path d="M461.95,110.587h-16.083v14.839h16.083V110.587z M441.156,101.204h25.505c2.604,0,4.711,2.102,4.711,4.692v24.223    c0,2.566-2.106,4.668-4.711,4.668h-25.505c-2.604,0-4.711-2.103-4.711-4.668v-24.223    C436.445,103.306,438.553,101.204,441.156,101.204z M419.905,110.587h-16.123v14.839h16.123V110.587z M399.072,101.204h25.496    c2.612,0,4.719,2.102,4.719,4.692v24.223c0,2.566-2.106,4.668-4.719,4.668h-25.496c-2.605,0-4.711-2.103-4.711-4.668v-24.223    C394.361,103.306,396.467,101.204,399.072,101.204z M377.813,110.587h-16.115v14.839h16.115V110.587z M357.022,101.204h25.509    c2.601,0,4.703,2.102,4.703,4.692v24.223c0,2.566-2.103,4.668-4.703,4.668h-25.509c-2.601,0-4.71-2.103-4.71-4.668v-24.223    C352.313,103.306,354.422,101.204,357.022,101.204z M486.568,82.483H25.429v58.007h461.14V82.483z M20.726,73.099h470.553    c2.607,0,4.711,2.095,4.711,4.685v67.382c0,2.57-2.104,4.684-4.711,4.684H20.726c-2.608,0-4.717-2.114-4.717-4.684V77.784    C16.009,75.194,18.118,73.099,20.726,73.099z M301.463,334.447v19.975l98.451-42.795v-19.611l-98.451-42.506v19.66l72.068,28.053    c1.26,0.443,2.327,1.391,2.837,2.689c0.95,2.406-0.233,5.152-2.648,6.104L301.463,334.447z M292.033,361.596v-30.322    c0-2.046,1.344-3.784,3.187-4.428l63.946-25.175l-64.139-24.942c-1.838-0.724-2.945-2.498-2.945-4.369l-0.049-29.96    c0-2.59,2.111-4.692,4.719-4.692c0.835,0,1.609,0.224,2.295,0.6l107.452,46.351c1.758,0.767,2.837,2.48,2.837,4.291v25.727    c0,2.063-1.304,3.797-3.142,4.428l-107.568,46.766c-2.375,1.026-5.132-0.064-6.163-2.431    C292.189,362.823,292.082,362.195,292.033,361.596z M267.957,224.566l-36.844,152.62h12.791l37.026-152.62H267.957z     M220.738,380.355l38.984-161.548c0.498-2.15,2.444-3.605,4.555-3.605h22.632c2.601,0,4.687,2.102,4.687,4.692    c0,0.5-0.056,1.011-0.24,1.471l-39.218,161.62c-0.54,2.139-2.446,3.562-4.554,3.585h-22.407c-2.603,0-4.711-2.09-4.711-4.691    C220.465,381.352,220.543,380.844,220.738,380.355z M112.101,311.479l98.481,42.616V334.26l-72.03-28.508    c-1.296-0.42-2.375-1.411-2.905-2.777c-0.923-2.406,0.265-5.116,2.718-6.031l72.216-27.461v-20.141l-98.481,42.491V311.479z     M213.082,365.369l-107.536-46.577c-1.757-0.763-2.837-2.474-2.837-4.272v-25.742c0-2.082,1.344-3.855,3.258-4.455l107.452-46.391    c2.381-1.003,5.132,0.08,6.164,2.446c0.273,0.611,0.391,1.227,0.391,1.85v30.476c0,2.111-1.384,3.885-3.345,4.484l-63.671,24.22    l64.063,25.358c1.835,0.724,2.953,2.481,2.953,4.352v30.127c0,2.578-2.111,4.668-4.719,4.668    C214.488,365.912,213.724,365.725,213.082,365.369z M486.568,172.259H25.429v257.255h461.14V172.259z M20.726,162.875h470.553    c2.607,0,4.711,2.118,4.711,4.692v266.647c0,2.569-2.104,4.683-4.711,4.683H20.726c-2.608,0-4.717-2.113-4.717-4.683V167.567    C16.009,164.993,18.118,162.875,20.726,162.875z"></path></g></g></g><g id="SvgjsG1427" featureKey="nameFeature-0" transform="matrix(0.8394896247403495,0,0,0.8394896247403495,118.05238412664437,15.98589461827919)" fill="#f5f5f5"><path d="M3.32 39.92 l-1 -7.28 l1.56 0 c1.32 3.96 3.68 6 6.84 6 c2.64 0 4.64 -1.68 4.64 -3.92 c0 -5.96 -12.84 -5.76 -12.84 -13.68 c0 -3.84 3.36 -6.52 8.12 -6.52 c3.08 0 5.48 1.04 6.08 1.04 c0.28 0 0.52 -0.08 0.88 -0.44 l0.84 0 l0.76 6.48 l-1.6 0 c-0.88 -3.24 -3.44 -5.36 -6.52 -5.36 c-2.24 0 -3.92 1.2 -3.92 2.76 c0 3.68 6.64 4.36 11.12 8.84 c1.64 1.64 2.28 3.36 2.28 5.28 c0 4.16 -3.76 7.44 -8.52 7.44 c-3.2 0 -6.12 -1.28 -6.84 -1.28 c-0.36 0 -0.64 0.2 -0.84 0.64 l-1.04 0 z M30.48 25.880000000000003 l0 9.68 c0 1.48 0.68 2.12 1.84 2.12 c0.96 0 1.88 -0.6 3.04 -2 l0.56 1.12 c-1.2 2.16 -3.6 3.64 -5.8 3.64 c-2.72 0 -4.52 -1.52 -4.52 -4.96 l0 -9.6 l-2.12 0 l0 -1.04 c2.4 -1 5.12 -3.92 5.84 -6.16 l1.16 0 l0 5 l5.24 0 l-0.6 2.2 l-4.64 0 z M52.92 34.6 l0.92 0.76 c-2.24 3.16 -5.48 5.08 -8.56 5.08 c-4.36 0 -7.32 -3.36 -7.32 -8.2 c0 -5.28 3.56 -9 8.56 -9 c2.12 0 3.8 0.68 5.04 1.92 c2.36 2.36 1.24 4.6 2.64 5.32 l0 1.16 l-11.08 0 c0.32 3.32 2.56 5.84 4.92 5.84 c1.48 0 2.92 -0.84 4.88 -2.88 z M43 30.08 l5.68 0 c-0.04 -3.08 -1.12 -4.96 -2.84 -4.96 c-1.64 0 -3.12 2.12 -2.84 4.96 z M55.599999999999994 24.96 l0 -1.28 l10.16 0 l0 1.28 l-1.4 0 c-0.84 0 -1.2 0.76 -0.52 2.24 l3.56 7.96 l3.12 -7.04 c0.92 -2.08 0.44 -2.88 -2.36 -3.16 l0 -1.28 l7.96 0 l0 1.28 c-2.08 0.2 -2.6 0.72 -3.36 2.4 l-5.72 12.92 l-2.4 0 l-5.96 -12.84 c-0.76 -1.64 -1.32 -2.28 -3.08 -2.48 z M92.92 34.6 l0.92 0.76 c-2.24 3.16 -5.48 5.08 -8.56 5.08 c-4.36 0 -7.32 -3.36 -7.32 -8.2 c0 -5.28 3.56 -9 8.56 -9 c2.12 0 3.8 0.68 5.04 1.92 c2.36 2.36 1.24 4.6 2.64 5.32 l0 1.16 l-11.08 0 c0.32 3.32 2.56 5.84 4.92 5.84 c1.48 0 2.92 -0.84 4.88 -2.88 z M83 30.08 l5.68 0 c-0.04 -3.08 -1.12 -4.96 -2.84 -4.96 c-1.64 0 -3.12 2.12 -2.84 4.96 z M139.07999999999998 28.04 l0 1.52 c-2.12 0.04 -2.84 0.68 -2.84 2.52 l0 5.96 c-2.88 1.32 -7 2.52 -10.44 2.52 c-10.12 0 -15 -5.64 -15 -13.32 c0 -7.32 6.04 -12.72 14.56 -12.72 c4.12 0 7.32 1.4 8.68 1.4 c0.6 0 0.92 -0.16 1.2 -0.52 l1 0 l0 7.32 l-1.6 0 c-1.08 -4.08 -4.12 -6.48 -8.28 -6.48 c-5.68 0 -9.6 4.48 -9.6 10.96 c0 6.56 4.12 11.44 9.68 11.44 c1.52 0 3.2 -0.4 4.28 -1.04 l0 -5.52 c0 -2 -0.84 -2.44 -4.92 -2.52 l0 -1.52 l13.28 0 z M152 38.72 l0 1.28 l-11.12 0 l0 -1.28 l0.28 0 c1.64 0 2.24 -0.72 2.24 -2.8 l0 -6.52 c0 -1.8 -0.24 -2.2 -1.44 -2.68 l-1.08 -0.44 l0 -1 l6.56 -2.48 l0.84 0 l0 4.48 l0.08 0 c1.48 -2.88 2.12 -4.04 3.48 -4.04 c0.28 0 0.6 0.04 0.8 0.12 l3.16 1.16 c-0.48 1.68 -1.12 3.12 -1.92 4.24 c-1.24 -0.48 -2.72 -1 -3.24 -1 c-0.8 0 -1.48 0.56 -2.36 1.8 l0 6.48 c0 1.92 0.6 2.68 2.68 2.68 l1.04 0 z M166.44 38.72 l0 1.28 l-10 0 l0 -1.28 l0.44 0 c1.64 0 2.24 -0.72 2.24 -2.8 l0 -7.68 c0 -1.04 -0.24 -1.32 -1.36 -1.72 l-1.32 -0.48 l0 -0.96 l6.84 -2.28 l0.72 0 l0 13.4 c0 1.64 0.68 2.52 2.44 2.52 z M161.4 13.719999999999999 c1.84 0 3.16 1.2 3.16 2.72 c0 1.6 -1.52 2.72 -3.16 2.72 c-1.84 0 -3.2 -1.16 -3.2 -2.72 c0 -1.44 1.52 -2.72 3.2 -2.72 z M175.72 25.759999999999998 l0 9.8 c0 2.4 0.84 3.16 3.44 3.16 l0.84 0 l0 1.28 l-12.12 0 l0 -1.28 l0.72 0 c1.64 0 2.24 -0.72 2.24 -2.8 l0 -10.16 l-2.96 0 l0 -0.8 l3 -1.28 c0 -7.2 6.44 -10.56 10.36 -10.56 c2.72 0 5.2 1.44 5.2 2.48 c0 0.2 -0.04 0.28 -0.32 0.64 l-1.24 1.6 c-0.32 0.4 -0.56 0.52 -0.84 0.52 c-1.16 0 -2.8 -2.96 -5.16 -2.96 c-1.44 0 -3.16 0.88 -3.16 4.32 l0 3.96 l3.96 0 l-0.24 2.08 l-3.72 0 z M188.64 25.759999999999998 l0 9.8 c0 2.4 0.84 3.16 3.44 3.16 l0.84 0 l0 1.28 l-12.12 0 l0 -1.28 l0.72 0 c1.64 0 2.24 -0.72 2.24 -2.8 l0 -10.16 l-2.96 0 l0 -0.8 l3 -1.28 c0 -7.2 6.44 -10.56 10.36 -10.56 c2.72 0 5.2 1.44 5.2 2.48 c0 0.2 -0.04 0.28 -0.32 0.64 l-1.24 1.6 c-0.32 0.4 -0.56 0.52 -0.84 0.52 c-1.16 0 -2.8 -2.96 -5.16 -2.96 c-1.44 0 -3.16 0.88 -3.16 4.32 l0 3.96 l3.96 0 l-0.24 2.08 l-3.72 0 z M203.95999999999998 38.72 l0 1.28 l-10 0 l0 -1.28 l0.44 0 c1.64 0 2.24 -0.72 2.24 -2.8 l0 -7.68 c0 -1.04 -0.24 -1.32 -1.36 -1.72 l-1.32 -0.48 l0 -0.96 l6.84 -2.28 l0.72 0 l0 13.4 c0 1.64 0.68 2.52 2.44 2.52 z M198.92 13.719999999999999 c1.84 0 3.16 1.2 3.16 2.72 c0 1.6 -1.52 2.72 -3.16 2.72 c-1.84 0 -3.2 -1.16 -3.2 -2.72 c0 -1.44 1.52 -2.72 3.2 -2.72 z M213 25.880000000000003 l0 9.68 c0 1.48 0.68 2.12 1.84 2.12 c0.96 0 1.88 -0.6 3.04 -2 l0.56 1.12 c-1.2 2.16 -3.6 3.64 -5.8 3.64 c-2.72 0 -4.52 -1.52 -4.52 -4.96 l0 -9.6 l-2.12 0 l0 -1.04 c2.4 -1 5.12 -3.92 5.84 -6.16 l1.16 0 l0 5 l5.24 0 l-0.6 2.2 l-4.64 0 z M226.79999999999998 27.759999999999998 l0 8.2 c0 2.52 0.68 2.76 2.08 2.76 l0.4 0 l0 1.28 l-10.12 0 l0 -1.28 l0.56 0 c2.04 0 2.2 -0.8 2.2 -2.92 l0 -17.48 c0 -1.16 -0.2 -1.44 -1.28 -1.8 l-1.16 -0.4 l0 -0.92 l6.36 -1.96 l0.96 0 l0 13.04 c2.24 -1.56 5.12 -3.04 7.2 -3.04 c2.92 0 4.36 2.36 4.36 7.08 l0 5.28 c0 2.36 0.28 3.12 1.8 3.12 l0.4 0 l0 1.28 l-9.44 0 l0 -1.28 l0.32 0 c1.68 0 2.04 -0.64 2.04 -2.92 l0 -6.04 c0 -2.16 -1 -3.52 -2.6 -3.52 c-1.08 0 -2.68 0.6 -4.08 1.52 z"></path></g>
			</g>
		</svg>
	